<svg width="40" height="40" viewBox="0 0 40 40" fill="none" xmlns="http://www.w3.org/2000/svg">
  <rect width="40" height="40" rx="8" fill="url(#gradient)"/>
  
  <!-- Crown -->
  <path d="M20 8L22 13L26 11L24.5 15.5H15.5L14 11L18 13L20 8Z" fill="white" opacity="0.95"/>
  <rect x="15" y="15" width="10" height="2" fill="white" opacity="0.95"/>
  
  <!-- Scissors (left) -->
  <g transform="translate(11, 22)">
    <circle cx="1.5" cy="1.5" r="1.5" fill="white" opacity="0.9"/>
    <circle cx="1.5" cy="6" r="1.5" fill="white" opacity="0.9"/>
    <path d="M2.5 2L6 4L2.5 5.5" stroke="white" stroke-width="1" opacity="0.9" fill="none"/>
    <line x1="6" y1="4" x2="8" y2="4" stroke="white" stroke-width="1" opacity="0.9"/>
  </g>
  
  <!-- Comb (right) -->
  <g transform="translate(23, 22)">
    <rect x="0" y="0" width="6" height="2" rx="0.5" fill="white" opacity="0.9"/>
    <rect x="0.5" y="2" width="0.8" height="3" fill="white" opacity="0.9"/>
    <rect x="2" y="2" width="0.8" height="3" fill="white" opacity="0.9"/>
    <rect x="3.5" y="2" width="0.8" height="3" fill="white" opacity="0.9"/>
    <rect x="5" y="2" width="0.8" height="3" fill="white" opacity="0.9"/>
  </g>
  
  <defs>
    <linearGradient id="gradient" x1="0" y1="0" x2="40" y2="40" gradientUnits="userSpaceOnUse">
      <stop stop-color="#EAB308"/>
      <stop offset="1" stop-color="#F59E0B"/>
    </linearGradient>
  </defs>
</svg>